<?xml version="1.0" encoding="UTF-8" standalone="no"?>
<!DOCTYPE svg PUBLIC "-//W3C//DTD SVG 1.1//EN" "http://www.w3.org/Graphics/SVG/1.1/DTD/svg11.dtd">
<svg width="100%" height="100%" viewBox="0 0 1024 1024" version="1.1" xmlns="http://www.w3.org/2000/svg" xmlns:xlink="http://www.w3.org/1999/xlink" xml:space="preserve" xmlns:serif="http://www.serif.com/" style="fill-rule:evenodd;clip-rule:evenodd;stroke-linejoin:round;stroke-miterlimit:2;">
    <g transform="matrix(1,0,0,1,105.076,4.26063)">
        <g transform="matrix(518.108,0,0,518.108,112.38,492.196)">
            <path d="M0.064,-0.496L0.211,-0.496L0.211,-0.7L0.337,-0.7L0.337,-0.496L0.516,-0.496L0.516,-0.376L0.337,-0.376L0.337,-0.15C0.337,-0.13 0.346,-0.12 0.364,-0.12L0.498,-0.12L0.498,-0L0.288,-0C0.265,-0 0.247,-0.007 0.233,-0.022C0.218,-0.037 0.211,-0.055 0.211,-0.078L0.211,-0.376L0.064,-0.376L0.064,-0.496Z" style="fill:white;fill-rule:nonzero;"/>
        </g>
        <g transform="matrix(518.108,0,0,518.108,388.013,492.196)">
            <path d="M0.097,-0.13L0.097,-0.25L0.437,-0.341L0.437,-0.359L0.097,-0.45L0.097,-0.57L0.515,-0.454L0.515,-0.246L0.097,-0.13Z" style="fill:white;fill-rule:nonzero;"/>
        </g>
        <g transform="matrix(518.108,0,0,518.108,112.38,885.958)">
            <path d="M0.373,-0.294L0.262,-0.294C0.234,-0.294 0.211,-0.287 0.194,-0.273C0.177,-0.259 0.168,-0.238 0.168,-0.21L0.168,-0.204C0.168,-0.176 0.177,-0.155 0.194,-0.141C0.211,-0.127 0.234,-0.12 0.262,-0.12L0.373,-0.12L0.373,-0.294ZM0.499,-0.496L0.499,-0.414L0.591,-0.414L0.591,-0.288L0.499,-0.288L0.499,-0L0.249,-0C0.216,-0 0.186,-0.005 0.16,-0.014C0.134,-0.023 0.112,-0.036 0.095,-0.053C0.078,-0.069 0.065,-0.088 0.056,-0.111C0.047,-0.133 0.042,-0.157 0.042,-0.183L0.042,-0.195C0.042,-0.235 0.053,-0.267 0.076,-0.292C0.098,-0.316 0.126,-0.333 0.16,-0.342L0.16,-0.36C0.126,-0.369 0.098,-0.386 0.076,-0.41C0.053,-0.434 0.042,-0.466 0.042,-0.506L0.042,-0.518C0.042,-0.544 0.047,-0.568 0.056,-0.591C0.065,-0.613 0.078,-0.632 0.095,-0.648C0.112,-0.664 0.134,-0.677 0.16,-0.686C0.186,-0.695 0.216,-0.7 0.249,-0.7L0.358,-0.7L0.358,-0.58L0.262,-0.58C0.234,-0.58 0.211,-0.574 0.194,-0.561C0.177,-0.548 0.168,-0.527 0.168,-0.5L0.168,-0.494C0.168,-0.466 0.177,-0.446 0.194,-0.433C0.211,-0.42 0.234,-0.414 0.262,-0.414L0.373,-0.414L0.373,-0.496L0.499,-0.496Z" style="fill:white;fill-rule:nonzero;"/>
        </g>
        <g transform="matrix(518.108,0,0,518.108,388.013,885.958)">
            <path d="M0.557,-0.126L0.557,-0L0.065,-0L0.065,-0.138C0.065,-0.175 0.071,-0.206 0.082,-0.232C0.093,-0.258 0.108,-0.28 0.129,-0.298C0.149,-0.316 0.173,-0.331 0.202,-0.343C0.231,-0.354 0.263,-0.364 0.299,-0.372C0.326,-0.378 0.347,-0.385 0.365,-0.393C0.382,-0.4 0.395,-0.409 0.405,-0.419C0.415,-0.428 0.422,-0.439 0.426,-0.451C0.429,-0.462 0.431,-0.475 0.431,-0.49C0.431,-0.518 0.421,-0.541 0.401,-0.56C0.38,-0.579 0.352,-0.588 0.316,-0.588C0.278,-0.588 0.248,-0.576 0.225,-0.554C0.202,-0.531 0.191,-0.499 0.191,-0.458L0.191,-0.414L0.059,-0.414L0.059,-0.47C0.059,-0.503 0.065,-0.534 0.077,-0.564C0.088,-0.593 0.105,-0.619 0.127,-0.642C0.148,-0.664 0.175,-0.682 0.206,-0.695C0.237,-0.708 0.273,-0.714 0.312,-0.714C0.354,-0.714 0.391,-0.708 0.422,-0.696C0.453,-0.683 0.48,-0.667 0.501,-0.647C0.522,-0.627 0.537,-0.604 0.548,-0.578C0.558,-0.551 0.563,-0.524 0.563,-0.496L0.563,-0.484C0.563,-0.425 0.547,-0.377 0.514,-0.338C0.481,-0.299 0.427,-0.271 0.352,-0.254C0.321,-0.247 0.295,-0.239 0.275,-0.232C0.254,-0.224 0.238,-0.215 0.227,-0.206C0.216,-0.197 0.208,-0.187 0.204,-0.176C0.199,-0.165 0.197,-0.152 0.197,-0.138L0.197,-0.126L0.557,-0.126Z" style="fill:white;fill-rule:nonzero;"/>
        </g>
    </g>
</svg>
